<svg width="58" height="43" viewBox="0 0 58 43" fill="none" xmlns="http://www.w3.org/2000/svg">
<rect width="58" height="43" fill="#1E1E1E"/>
<g id="Group 47">
<circle id="Ellipse 784" cx="13.1384" cy="2.62835" r="2.62835" fill="currentColor"/>
<circle id="Ellipse 790" cx="18.3906" cy="2.62835" r="2.62835" fill="currentColor"/>
<circle id="Ellipse 797" cx="23.6491" cy="2.62835" r="2.62835" fill="currentColor"/>
<circle id="Ellipse 798" cx="7.89" cy="7.89" r="2.63" fill="currentColor"/>
<circle id="Ellipse 801" cx="2.63" cy="13.15" r="2.63" fill="currentColor"/>
<circle id="Ellipse 804" cx="2.63" cy="18.41" r="2.63" fill="currentColor"/>
<circle id="Ellipse 807" cx="2.63" cy="23.67" r="2.63" fill="currentColor"/>
<circle id="Ellipse 810" cx="2.63" cy="28.93" r="2.63" fill="currentColor"/>
<circle id="Ellipse 799" cx="13.1384" cy="7.88836" r="2.62835" fill="currentColor"/>
<circle id="Ellipse 802" cx="7.88835" cy="13.1484" r="2.62835" fill="currentColor"/>
<circle id="Ellipse 805" cx="7.88835" cy="18.4084" r="2.62835" fill="currentColor"/>
<circle id="Ellipse 808" cx="7.88835" cy="23.6684" r="2.62835" fill="currentColor"/>
<circle id="Ellipse 811" cx="7.88835" cy="28.9284" r="2.62835" fill="currentColor"/>
<circle id="Ellipse 800" cx="18.3884" cy="7.88836" r="2.62835" fill="currentColor"/>
<circle id="Ellipse 803" cx="13.1384" cy="13.1484" r="2.62835" fill="currentColor"/>
<circle id="Ellipse 806" cx="13.1384" cy="18.4084" r="2.62835" fill="currentColor"/>
<circle id="Ellipse 809" cx="13.1384" cy="23.6684" r="2.62835" fill="currentColor"/>
<circle id="Ellipse 812" cx="13.1384" cy="28.9284" r="2.62835" fill="currentColor"/>
<circle id="Ellipse 813" cx="18.3984" cy="28.9284" r="2.62835" fill="currentColor"/>
<circle id="Ellipse 814" cx="7.89" cy="34.19" r="2.63" fill="currentColor"/>
<circle id="Ellipse 815" cx="13.1384" cy="34.1884" r="2.62835" fill="currentColor"/>
<circle id="Ellipse 816" cx="18.3984" cy="34.1884" r="2.62835" fill="currentColor"/>
<circle id="Ellipse 817" cx="23.6584" cy="34.1884" r="2.62835" fill="currentColor"/>
<circle id="Ellipse 818" cx="28.9184" cy="34.1884" r="2.62835" fill="currentColor"/>
<circle id="Ellipse 820" cx="13.1384" cy="39.4484" r="2.62835" fill="currentColor"/>
<circle id="Ellipse 821" cx="18.3984" cy="39.4484" r="2.62835" fill="currentColor"/>
<circle id="Ellipse 822" cx="23.6584" cy="39.4484" r="2.62835" fill="currentColor"/>
<circle id="Ellipse 823" cx="28.9184" cy="39.4484" r="2.62835" fill="currentColor"/>
<circle id="Ellipse 819" cx="34.1784" cy="34.1884" r="2.62835" fill="currentColor"/>
<circle id="Ellipse 824" cx="23.66" cy="18.41" r="2.63" fill="currentColor"/>
<circle id="Ellipse 825" cx="28.9184" cy="18.4084" r="2.62835" fill="currentColor"/>
<circle id="Ellipse 836" cx="28.9184" cy="13.1484" r="2.62835" fill="currentColor"/>
<circle id="Ellipse 826" cx="34.1784" cy="18.4084" r="2.62835" fill="currentColor"/>
<circle id="Ellipse 827" cx="39.4384" cy="18.4084" r="2.62835" fill="currentColor"/>
<circle id="Ellipse 828" cx="44.6984" cy="18.4084" r="2.62835" fill="currentColor"/>
<circle id="Ellipse 829" cx="49.9584" cy="18.4084" r="2.62835" fill="currentColor"/>
<circle id="Ellipse 831" cx="28.9184" cy="23.6684" r="2.62835" fill="currentColor"/>
<circle id="Ellipse 832" cx="34.1784" cy="23.6684" r="2.62835" fill="currentColor"/>
<circle id="Ellipse 833" cx="39.4384" cy="23.6684" r="2.62835" fill="currentColor"/>
<circle id="Ellipse 834" cx="44.6984" cy="23.6684" r="2.62835" fill="currentColor"/>
<circle id="Ellipse 835" cx="49.9584" cy="23.6684" r="2.62835" fill="currentColor"/>
<circle id="Ellipse 830" cx="55.2184" cy="18.4084" r="2.62835" fill="currentColor"/>
<circle id="Ellipse 837" cx="39.4384" cy="13.1484" r="2.62835" fill="currentColor"/>
<circle id="Ellipse 838" cx="44.6984" cy="13.1484" r="2.62835" fill="currentColor"/>
<circle id="Ellipse 839" cx="49.9584" cy="13.1484" r="2.62835" fill="currentColor"/>
<circle id="Ellipse 841" cx="44.6984" cy="7.88836" r="2.62835" fill="currentColor"/>
<circle id="Ellipse 842" cx="49.9584" cy="7.88836" r="2.62835" fill="currentColor"/>
<circle id="Ellipse 840" cx="55.2184" cy="13.1484" r="2.62835" fill="currentColor"/>
</g>
</svg>
