<svg viewBox="0 0 64 64" xmlns="http://www.w3.org/2000/svg">
<rect width="64" height="64" rx="14" fill="#000000"/>
<g transform="translate(7.5 7.5)">
<circle cx="24.4896" cy="2.63" r="2.63" fill="#ffffff"/>
<circle cx="40.3251" cy="8.66122" r="2.63" fill="#ffffff"/>
<circle cx="46.3545" cy="24.4914" r="2.63" fill="#ffffff"/>
<circle cx="40.3251" cy="40.3223" r="2.63" fill="#ffffff"/>
<circle cx="24.4896" cy="46.353" r="2.63" fill="#ffffff"/>
<circle cx="8.66122" cy="40.3223" r="2.63" fill="#ffffff"/>
<circle cx="2.63" cy="24.4914" r="2.63" fill="#ffffff"/>
<circle cx="7.90565" cy="8.66122" r="2.63" fill="#ffffff"/>
<circle cx="19.2159" cy="13.9379" r="2.63" fill="#ffffff"/>
<circle cx="19.2159" cy="19.2142" r="2.63" fill="#ffffff"/>
<circle cx="13.935" cy="19.2142" r="2.63" fill="#ffffff"/>
<circle cx="35.0442" cy="19.2142" r="2.63" fill="#ffffff"/>
<circle cx="13.935" cy="24.4914" r="2.63" fill="#ffffff"/>
<circle cx="35.0442" cy="24.4914" r="2.63" fill="#ffffff"/>
<circle cx="13.935" cy="29.7687" r="2.63" fill="#ffffff"/>
<circle cx="35.0442" cy="29.7687" r="2.63" fill="#ffffff"/>
<circle cx="19.2159" cy="24.4914" r="2.63" fill="#ffffff"/>
<circle cx="19.2159" cy="29.7687" r="2.63" fill="#ffffff"/>
<circle cx="19.2159" cy="35.046" r="2.63" fill="#ffffff"/>
<circle cx="24.4896" cy="13.9379" r="2.63" fill="#ffffff"/>
<circle cx="24.4896" cy="19.2142" r="2.63" fill="#ffffff"/>
<circle cx="24.4896" cy="24.4914" r="2.63" fill="#ffffff"/>
<circle cx="24.4896" cy="29.7687" r="2.63" fill="#ffffff"/>
<circle cx="24.4896" cy="35.046" r="2.63" fill="#ffffff"/>
<circle cx="29.7705" cy="13.9379" r="2.63" fill="#ffffff"/>
<circle cx="29.7705" cy="19.2142" r="2.63" fill="#ffffff"/>
<circle cx="29.7705" cy="24.4914" r="2.63" fill="#ffffff"/>
<circle cx="29.7705" cy="29.7687" r="2.63" fill="#ffffff"/>
<circle cx="29.7705" cy="35.046" r="2.63" fill="#ffffff"/>
</g>
</svg>
